<svg width="16" height="17" viewBox="0 0 16 17" fill="none" xmlns="http://www.w3.org/2000/svg">
    <path d="M14.2788 4.18526H11.2V2.99738C11.2 2.48829 10.7879 2.07617 10.2788 2.07617H5.64849C5.1394 2.07617 4.72728 2.48829 4.72728 2.99738V4.18526H1.72122C0.896977 4.18526 0.242432 4.86405 0.242432 5.66405V6.51254L7.12728 9.71254C7.17577 9.25193 7.5394 8.88829 8.00001 8.88829C8.46061 8.88829 8.84849 9.25193 8.87274 9.71254L15.7576 6.51254V5.66405C15.7576 4.86405 15.103 4.18526 14.2788 4.18526ZM10.7152 4.18526H5.21213V2.99738C5.21213 2.75496 5.40607 2.56102 5.64849 2.56102H10.2788C10.5212 2.56102 10.7152 2.75496 10.7152 2.99738V4.18526Z" fill="#4785FF"/>
    <path d="M8.41213 10.8276V9.78517C8.41213 9.56699 8.24244 9.37305 8.00001 9.37305C7.75759 9.37305 7.58789 9.54274 7.58789 9.78517V10.8276C7.58789 11.0458 7.75759 11.2397 8.00001 11.2397C8.24244 11.2397 8.41213 11.0458 8.41213 10.8276Z" fill="#4785FF"/>
    <path d="M8.89698 10.8267C8.89698 11.3116 8.5091 11.7237 8.00001 11.7237C7.49092 11.7237 7.10304 11.3358 7.10304 10.8267V10.2449L0.242432 7.04492V13.4449C0.242432 14.2692 0.896977 14.9237 1.72122 14.9237H14.2788C15.103 14.9237 15.7576 14.2692 15.7576 13.4449V7.04492L8.89698 10.2449V10.8267Z" fill="#4785FF"/>
</svg>
